<svg preserveAspectRatio="none" overflow="visible" style="display: block;" width="18" height="18" viewBox="0 0 18 18" fill="none" xmlns="http://www.w3.org/2000/svg">
<g id="shopping-bag">
<path id="Vector" d="M12 7.49988C12 8.29559 11.6839 9.05872 11.1213 9.62137C10.5587 10.184 9.79565 10.5001 9 10.5001C8.20435 10.5001 7.44129 10.184 6.87868 9.62137C6.31607 9.05872 6 8.29559 6 7.49988M2.3269 4.52528H15.6724M2.55 4.09986C2.35527 4.35952 2.25 4.67535 2.25 4.99993V15.0005C2.25 15.3983 2.40804 15.7799 2.68934 16.0612C2.97064 16.3426 3.35218 16.5006 3.75 16.5006H14.25C14.6478 16.5006 15.0294 16.3426 15.3107 16.0612C15.592 15.7799 15.75 15.3983 15.75 15.0005V4.99993C15.75 4.67535 15.6447 4.35952 15.45 4.09986L13.95 2.09945C13.8103 1.91314 13.6291 1.76192 13.4208 1.65777C13.2125 1.55362 12.9829 1.4994 12.75 1.4994H5.25C5.01713 1.4994 4.78746 1.55362 4.57918 1.65777C4.3709 1.76192 4.18972 1.91314 4.05 2.09945L2.55 4.09986Z" stroke="#1A1A1A" stroke-width="2" stroke-linecap="round"/>
</g>
</svg>
